<svg xmlns="http://www.w3.org/2000/svg" xmlns:xlink="http://www.w3.org/1999/xlink" viewBox="0,0,256,256" width="50px" height="50px"><g fill="#ffffff" fill-rule="nonzero" stroke="none" stroke-width="1" stroke-linecap="butt" stroke-linejoin="miter" stroke-miterlimit="10" stroke-dasharray="" stroke-dashoffset="0" font-family="none" font-weight="none" font-size="none" text-anchor="none" style="mix-blend-mode: normal"><g transform="scale(5.12,5.12)"><path d="M14.94727,8.92188c-0.01824,0.00015 -0.03648,0.0008 -0.05469,0.00195l-0.7793,0.0332c-0.01239,0.00107 -0.02476,0.00237 -0.03711,0.00391c-2.32863,0.18998 -4.46955,1.17119 -6.12695,2.47266c-0.0013,0.00065 -0.00261,0.0013 -0.00391,0.00195c-1.62568,1.28856 -2.86966,2.81664 -3.84961,4.38477c-0.98789,1.56764 -1.73649,3.19914 -2.33594,4.84375c-0.00067,0.00325 -0.00132,0.00651 -0.00195,0.00977c-1.16797,3.29876 -1.79722,6.72476 -1.80859,10.26758c-0.00002,0.00391 -0.00002,0.00781 0,0.01172c0.01565,1.84966 0.25027,3.82909 1.02539,5.8125c0.76699,1.98496 2.22723,4.09978 4.59766,5.30859h0.00195l0.00195,0.00195c1.17823,0.60488 2.49032,0.90823 3.75977,0.91602c1.43747,0.03124 2.74374,-0.37451 3.77539,-0.87305c0.00326,-0.00129 0.00652,-0.00259 0.00977,-0.00391c2.02179,-1.0017 3.42144,-2.34708 4.61719,-3.61328c0.00328,-0.00323 0.00653,-0.00649 0.00977,-0.00977c2.38536,-2.59207 4.13329,-5.38387 5.72656,-8.16797v-0.00195c0.55157,-0.95923 1.02848,-1.94371 1.52539,-2.92187c0.49717,0.97868 0.97344,1.96416 1.52539,2.92383c1.59317,2.78293 3.34111,5.57581 5.72656,8.16797c0.00323,0.00328 0.00649,0.00653 0.00977,0.00977c1.19652,1.26697 2.59499,2.61246 4.61719,3.61328c0.00325,0.00132 0.0065,0.00262 0.00977,0.00391c1.03218,0.49879 2.33895,0.90311 3.77539,0.87305c1.26944,-0.0078 2.58153,-0.31114 3.75977,-0.91602l0.00391,-0.00195c2.36838,-1.2089 3.82827,-3.32073 4.5957,-5.30469c0.77642,-1.9848 1.01168,-3.96545 1.02734,-5.81641c0.00002,-0.00391 0.00002,-0.00781 0,-0.01172c-0.01143,-3.54203 -0.64175,-6.96908 -1.80859,-10.26758c-0.00064,-0.00261 -0.00129,-0.00521 -0.00195,-0.00781c-0.59831,-1.64446 -1.34643,-3.27739 -2.33398,-4.84375c-0.97995,-1.56813 -2.22588,-3.09621 -3.85156,-4.38477c-0.0013,-0.00131 -0.0026,-0.00261 -0.00391,-0.00391c-1.65741,-1.30147 -3.79832,-2.28268 -6.12695,-2.47266c-0.01171,-0.00086 -0.02343,-0.00151 -0.03516,-0.00195l-0.7793,-0.03516c-0.01888,-0.00053 -0.03776,-0.00053 -0.05664,0c-0.26571,0.00293 -0.59517,0.00451 -0.94922,0.04883c-0.65286,0.06319 -1.25551,0.2061 -1.80664,0.37305c-0.00261,0.00064 -0.00521,0.00129 -0.00781,0.00195c-1.14006,0.3553 -2.12035,0.8772 -2.9707,1.43555c-0.00131,0.0013 -0.00261,0.0026 -0.00391,0.00391c-1.68719,1.12408 -2.9883,2.4404 -4.12305,3.73828c-0.07102,0.08101 -0.12412,0.15406 -0.19141,0.23438c-0.06676,-0.07997 -0.11911,-0.15368 -0.18945,-0.23437c-0.00065,-0.00065 -0.0013,-0.0013 -0.00195,-0.00195c-1.13516,-1.29615 -2.43402,-2.61126 -4.12109,-3.73633c-0.00195,-0.00131 -0.0039,-0.00261 -0.00586,-0.00391c-0.85094,-0.55806 -1.83173,-1.08024 -2.9707,-1.43555c-0.0026,-0.00066 -0.00521,-0.00131 -0.00781,-0.00195c-0.55183,-0.16683 -1.15455,-0.31182 -1.80664,-0.375c-0.3532,-0.04404 -0.68407,-0.0459 -0.94922,-0.04883zM14.95313,10.92383c0.26234,0.0031 0.52256,0.0073 0.70703,0.03125c0.01169,0.00151 0.02342,0.00281 0.03516,0.00391c0.47902,0.04546 0.95099,0.15741 1.42578,0.30078c0.0012,0.00038 0.00271,-0.00038 0.00391,0c0.91467,0.28666 1.7208,0.71123 2.45898,1.19531c1.48,0.98806 2.64339,2.15662 3.7207,3.38672c0.30084,0.34528 0.58752,0.72129 0.90039,1.11523c0.00258,0.00327 0.00519,0.00653 0.00781,0.00977c0.0012,0.0015 0.00271,0.00241 0.00391,0.00391c0.01379,0.01674 0.02812,0.03302 0.04297,0.04883c1.41242,1.55555 2.37272,3.22733 3.13281,4.49414c0.03949,0.06711 0.08669,0.12938 0.14063,0.18555c1.10468,2.0268 2.35872,4.30201 3.51953,6.17969c0.00129,0.00261 0.00259,0.00521 0.00391,0.00781c1.60583,2.54669 3.35184,5.05617 5.33984,7.13672c0.0013,0.00065 0.0026,0.0013 0.00391,0.00195c1.07316,1.11282 2.56887,1.98047 4.48438,1.98047c0.67508,0 1.35927,-0.11375 1.98438,-0.44336c0.6239,-0.32897 1.16604,-0.90418 1.44531,-1.64648c0.46228,-1.20401 0.63815,-2.5744 0.63281,-3.96484c0.00001,-0.00195 0.00001,-0.00391 0,-0.00586c-0.02718,-2.86582 -0.5887,-5.80767 -1.57617,-8.51367l-0.00195,-0.00391c-0.97373,-2.70146 -2.44069,-5.29689 -4.49414,-6.91797c-0.00259,-0.00197 -0.0052,-0.00392 -0.00781,-0.00586c-1.03016,-0.79556 -2.17172,-1.2901 -3.36914,-1.40039c-0.01561,-0.00102 -0.03124,-0.00167 -0.04687,-0.00195l-0.37695,-0.01758c-0.02668,-0.00107 -0.0534,-0.00107 -0.08008,0c-0.05658,0.002 -0.19019,0.0026 -0.35937,0.02149c-0.3131,0.02214 -0.57672,0.0875 -0.80664,0.15039c-0.00522,0.00191 -0.01043,0.00386 -0.01562,0.00586c-0.57177,0.16629 -1.13416,0.44464 -1.69141,0.80078c-0.00065,0 -0.0013,0 -0.00195,0c-1.1164,0.71552 -2.15732,1.70863 -3.125,2.79492c-0.37015,0.41406 -0.66999,0.77684 -0.96094,1.09375c-0.50758,-0.81946 -1.029,-1.62024 -1.78711,-2.55273c0.14805,-0.18517 0.29908,-0.38342 0.44922,-0.55469c0.00065,-0.00065 0.0013,-0.0013 0.00195,-0.00195c1.07725,-1.23212 2.2418,-2.40075 3.72461,-3.38867c0.73783,-0.484 1.54377,-0.90925 2.46094,-1.19531h0.00195c0.47201,-0.14261 0.9432,-0.25153 1.42188,-0.29687c0.01174,-0.00109 0.02346,-0.0024 0.03516,-0.00391c0.19009,-0.0247 0.45596,-0.03017 0.72656,-0.0332h0.00586l0.6875,0.03125h0.00195c1.86212,0.15237 3.67281,0.97106 5.05078,2.05273h0.00195c1.41014,1.11871 2.50943,2.45864 3.39453,3.875c0.00065,0.00065 0.0013,0.0013 0.00195,0.00195c0.89726,1.42248 1.58532,2.92262 2.14648,4.46484c1.09369,3.09485 1.67944,6.28356 1.69141,9.58594v0.00586c0.00001,0.002 -0.00001,0.00386 0,0.00586c-0.01521,1.6913 -0.2286,3.4064 -0.88867,5.09375c-0.00065,0.0013 -0.0013,0.0026 -0.00195,0.00391c-0.63053,1.6318 -1.82282,3.32134 -3.64453,4.25c-0.00065,0 -0.0013,0 -0.00195,0c-0.88089,0.45284 -1.91196,0.69408 -2.86523,0.69922c-0.00586,-0.00005 -0.01172,-0.00005 -0.01758,0c-1.028,0.02331 -2.0565,-0.28238 -2.87109,-0.67578h-0.00195c-1.70659,-0.84637 -2.89052,-1.97044 -4.0332,-3.17969l-0.00195,-0.00195c-2.22924,-2.42283 -3.89478,-5.07277 -5.46094,-7.80859c-0.00065,-0.00065 -0.0013,-0.0013 -0.00195,-0.00195c-0.84182,-1.46366 -1.61529,-2.97756 -2.35156,-4.50391c-0.0023,-0.0047 -0.00551,-0.0089 -0.00781,-0.01367c-0.01252,-0.02663 -0.0262,-0.0527 -0.04102,-0.07812c-0.0017,-0.0028 -0.00416,-0.00687 -0.00586,-0.00977c-0.00321,-0.00524 -0.00646,-0.01045 -0.00977,-0.01562c-0.71195,-1.19514 -1.66001,-2.81732 -2.59375,-4.01172c-0.0242,-0.04842 -0.05228,-0.0948 -0.08398,-0.13867c-0.0076,-0.01017 -0.01584,-0.01913 -0.02344,-0.0293c-0.69209,-0.92586 -1.3863,-1.82854 -2.13672,-2.66797c-0.96768,-1.0863 -2.0086,-2.0794 -3.125,-2.79492c-0.00065,0 -0.0013,0 -0.00195,0c-0.5572,-0.35614 -1.11964,-0.63449 -1.69141,-0.80078c-0.00325,-0.00132 -0.0065,-0.00262 -0.00977,-0.00391c-0.23542,-0.06575 -0.50417,-0.13268 -0.81641,-0.1543c-0.16599,-0.01813 -0.29952,-0.01753 -0.35547,-0.01953c-0.02668,-0.00107 -0.0534,-0.00107 -0.08008,0l-0.37695,0.01758c-0.01564,0.00028 -0.03127,0.00094 -0.04687,0.00195c-1.19736,0.11028 -2.33943,0.60429 -3.36914,1.40039c-0.00261,0.00194 -0.00522,0.00389 -0.00781,0.00586c-2.05498,1.62108 -3.52235,4.21901 -4.49609,6.92187c-0.98747,2.706 -1.549,5.64787 -1.57617,8.51367c-0.00001,0.00195 -0.00001,0.00391 0,0.00586c-0.00427,1.39072 0.17164,2.76276 0.63477,3.9668c0.00044,0.0012 -0.00045,0.00271 0,0.00391c0.46057,1.22401 1.19674,2.17217 2.1543,2.67383h0.00195l0.00195,0.00195c0.45851,0.24067 0.99374,0.3771 1.55664,0.38867c0.50765,0.0293 1.0277,-0.08989 1.57813,-0.33203c0.00131,-0.0013 0.00261,-0.0026 0.00391,-0.00391c1.1376,-0.50779 2.22885,-1.43316 3.23047,-2.4707c0.00131,-0.0013 0.00261,-0.0026 0.00391,-0.00391c1.98671,-2.08132 3.73311,-4.58824 5.33984,-7.13477c0.00197,-0.00259 0.00392,-0.0052 0.00586,-0.00781c0.99828,-1.61525 1.92341,-3.2856 2.85156,-4.96094c0.49369,0.74799 0.97735,1.46246 1.42969,2.22266c-0.66646,1.36367 -1.35194,2.7211 -2.10547,4.03125c-0.00065,0.00065 -0.0013,0.0013 -0.00195,0.00195c-1.56606,2.73665 -3.23166,5.38566 -5.46094,7.80859l-0.00195,0.00195c-1.14241,1.209 -2.32982,2.33392 -4.03906,3.18164c-0.81456,0.39283 -1.83975,0.69791 -2.86523,0.67383c-0.00651,-0.00006 -0.01302,-0.00006 -0.01953,0c-0.9532,-0.00534 -1.98434,-0.24638 -2.86523,-0.69922c-0.00065,-0.00065 -0.0013,-0.0013 -0.00195,-0.00195c-1.82119,-0.92748 -3.01396,-2.61613 -3.64453,-4.24805c-0.00065,-0.0013 -0.0013,-0.00261 -0.00195,-0.00391c-0.66007,-1.68735 -0.87346,-3.40245 -0.88867,-5.09375v-0.01172c0.01197,-3.30551 0.59561,-6.49553 1.69141,-9.5918c0.00048,-0.0014 0.00147,-0.00251 0.00195,-0.00391c0.56161,-1.53914 1.25098,-3.03443 2.14648,-4.45508c0.00065,-0.0013 0.0013,-0.0026 0.00195,-0.00391c0.88605,-1.41787 1.98417,-2.75751 3.39648,-3.87695c1.37788,-1.08138 3.189,-1.89844 5.05078,-2.05078h0.00195zM14.98438,16.08398c0.0759,0.002 0.14693,0.00401 0.14648,0.00391c0.02852,0.00384 0.05719,0.00645 0.08594,0.00781c0.06821,0.0038 0.22026,0.03296 0.41211,0.08594c0.32223,0.09371 0.73907,0.28855 1.17383,0.56641c0.87704,0.56253 1.81929,1.43851 2.71094,2.43945c0,0.00065 0,0.0013 0,0.00195c0.55494,0.62077 1.09859,1.33516 1.64648,2.05664c-1.06822,1.95552 -2.14666,3.87142 -3.29297,5.72656c-1.57326,2.49348 -3.25846,4.89958 -5.09375,6.82227c-0.8921,0.92327 -1.89254,1.71084 -2.59961,2.02734c-0.37269,0.16395 -0.55754,0.18091 -0.66211,0.17383c-0.01886,-0.00119 -0.03775,-0.00184 -0.05664,-0.00195c-0.28183,-0.0033 -0.46963,-0.05635 -0.68164,-0.16797c-0.00065,-0.00065 -0.0013,-0.0013 -0.00195,-0.00195c-0.37797,-0.19736 -0.88775,-0.73992 -1.21484,-1.61328c-0.00064,-0.00261 -0.00129,-0.00521 -0.00195,-0.00781c-0.33728,-0.87559 -0.50507,-2.02868 -0.50195,-3.23828v-0.00391v-0.00195c0.02552,-2.61505 0.54607,-5.35063 1.45703,-7.8457c0.00065,-0.0013 0.0013,-0.0026 0.00195,-0.00391c0.88953,-2.46911 2.26824,-4.77586 3.84961,-6.02539c0.7835,-0.60478 1.5444,-0.91404 2.32031,-0.98633zM35.01563,16.08398l0.30273,0.01367c0.77451,0.07216 1.53475,0.38112 2.31836,0.98438c1.58269,1.25045 2.96169,3.5573 3.85156,6.02734c0.00065,0.0013 0.0013,0.00261 0.00195,0.00391c0.91163,2.4969 1.43222,5.23478 1.45703,7.85156c0.004,1.20911 -0.16245,2.36116 -0.5,3.23828c-0.00131,0.0026 -0.00262,0.0052 -0.00391,0.00781c-0.11521,0.30762 -0.26242,0.45264 -0.50781,0.58203c-0.24539,0.12939 -0.60987,0.21289 -1.05078,0.21289c-1.34875,0 -2.2211,-0.51602 -3.04102,-1.36523c-1.83389,-1.91925 -3.51922,-4.32226 -5.08984,-6.8125l-0.00586,-0.00781c-1.14362,-1.85048 -2.41786,-4.15982 -3.52734,-6.19727c0.38888,-0.46255 0.69612,-0.79653 1.26563,-1.43359c0,-0.00065 0,-0.0013 0,-0.00195c0.89165,-1.00095 1.8339,-1.87693 2.71094,-2.43945l0.00195,-0.00195c0.43294,-0.27642 0.84861,-0.46876 1.16992,-0.5625l0.00195,-0.00195c0.19439,-0.05229 0.34947,-0.08247 0.41211,-0.08594c0.02875,-0.00137 0.05742,-0.00397 0.08594,-0.00781c-0.00044,0.00006 0.07058,-0.00191 0.14648,-0.00391z"></path></g></g></svg>