<svg xmlns:xlink="http://www.w3.org/1999/xlink" xmlns="http://www.w3.org/2000/svg" width="24" height="24" viewBox="0 0 24 24" fill="none">
<path d="M5.52 9.75H4.534C4.538 10.55 4.16 11.304 3.52 11.782L3.13 12.074L4.64 14.13H5.88L4.49 12.236C5.154 11.578 5.524 10.684 5.52 9.75Z" fill="#E2E2E2"/>
<path d="M3.006 9.75H2V14.13H3.006V9.75Z" fill="#E2E2E2"/>
<path d="M7.122 9.75H6.172V14.13H7.122V9.75Z" fill="#E2E2E2"/>
<path d="M15.45 11.018C15.088 11.018 14.744 11.128 14.514 11.442V11.102H13.614V14.13H14.528V12.54C14.528 12.08 14.838 11.856 15.208 11.856C15.606 11.856 15.836 12.094 15.836 12.536V14.134H16.74V12.204C16.74 11.498 16.18 11.018 15.45 11.018Z" fill="#E2E2E2"/>
<path d="M9.992 11.102V11.296C9.728 11.114 9.414 11.016 9.092 11.018C8.21 11.008 7.486 11.716 7.476 12.598C7.466 13.48 8.174 14.204 9.056 14.214C9.068 14.214 9.08 14.214 9.092 14.214C9.414 14.216 9.728 14.118 9.992 13.936V14.13H10.898V11.102H9.992ZM9.166 13.392C8.712 13.392 8.344 13.044 8.344 12.614C8.344 12.184 8.71 11.836 9.166 11.836C9.622 11.836 9.988 12.184 9.988 12.614C9.988 13.044 9.622 13.392 9.166 13.392Z" fill="#E2E2E2"/>
<path d="M12.302 11.494V11.102H11.374V14.13H12.306V12.718C12.306 12.242 12.822 11.984 13.18 11.984H13.188V11.102C12.824 11.102 12.484 11.26 12.302 11.494Z" fill="#E2E2E2"/>
<path d="M19.558 11.102V11.296C19.294 11.114 18.98 11.016 18.658 11.018C17.776 11.008 17.052 11.716 17.042 12.598C17.032 13.48 17.74 14.204 18.622 14.214C18.634 14.214 18.646 14.214 18.658 14.214C18.98 14.216 19.294 14.118 19.558 13.936V14.13H20.464V11.102H19.558ZM18.732 13.392C18.278 13.392 17.91 13.044 17.91 12.614C17.91 12.184 18.276 11.836 18.732 11.836C19.188 11.836 19.554 12.184 19.554 12.614C19.558 13.044 19.186 13.392 18.732 13.392Z" fill="#E2E2E2"/>
<path d="M21.164 11.19C21.164 11.146 21.134 11.12 21.084 11.12H21V11.35H21.04V11.266H21.084L21.12 11.35H21.164L21.124 11.258C21.15 11.244 21.166 11.218 21.164 11.19ZM21.084 11.226H21.04V11.154H21.084C21.11 11.154 21.124 11.168 21.124 11.19C21.124 11.212 21.116 11.224 21.084 11.226Z" fill="#E2E2E2"/>
<path d="M21.072 11.022C20.952 11.022 20.856 11.118 20.856 11.238C20.858 11.356 20.954 11.452 21.072 11.454C21.192 11.458 21.292 11.364 21.294 11.244C21.298 11.124 21.204 11.024 21.084 11.022C21.08 11.022 21.076 11.022 21.072 11.022ZM21.072 11.414C20.976 11.414 20.9 11.334 20.9 11.238C20.9 11.238 20.9 11.238 20.9 11.236C20.9 11.14 20.976 11.062 21.072 11.06C21.168 11.06 21.244 11.138 21.244 11.234V11.236C21.244 11.334 21.168 11.412 21.072 11.414Z" fill="#E2E2E2"/>
<path d="M21.43 13.058C21.116 13.058 20.86 13.314 20.86 13.628C20.86 13.942 21.116 14.198 21.43 14.198C21.744 14.198 22 13.942 22 13.628C22 13.312 21.744 13.058 21.43 13.058Z" fill="#E2E2E2"/>
</svg>